<svg version="1.1" id="Layer_1" xmlns="http://www.w3.org/2000/svg" xmlns:xlink="http://www.w3.org/1999/xlink" x="0px" y="0px"
	 width="100%" viewBox="0 0 4096 1304" enable-background="new 0 0 4096 1304" xml:space="preserve">
<path fill="#000000" opacity="1.000000" stroke="none" 
	d="
M956.000000,2.000000 
	C2003.236694,2.000000 3050.473389,2.000000 4097.854980,2.000000 
	C4097.854980,436.529785 4097.854980,871.059631 4097.854980,1305.794678 
	C2732.666748,1305.794678 1367.333374,1305.794678 2.000005,1305.791748 
	C2.000000,1215.797241 2.000000,1125.805908 2.792631,1034.542603 
	C4.442501,1035.685547 5.690039,1038.037720 6.088169,1040.526001 
	C7.655480,1050.321167 8.653952,1060.213501 10.415710,1069.970093 
	C14.499881,1092.588013 20.565491,1114.655518 32.533257,1134.509277 
	C42.968071,1151.819946 55.548988,1167.315674 75.386612,1174.572876 
	C83.047546,1177.375366 91.148712,1178.974487 97.743698,1180.767090 
	C102.691147,1192.482910 106.738976,1203.708618 112.066109,1214.290405 
	C119.637062,1229.329468 132.534866,1234.999023 148.844513,1232.425171 
	C169.547089,1254.853638 171.908371,1255.441650 196.205307,1244.409912 
	C227.412781,1258.958740 255.536728,1234.098755 260.572906,1210.307129 
	C262.838348,1199.604980 261.610199,1189.151367 261.677063,1178.570435 
	C261.879150,1146.589844 262.275024,1114.609619 262.308655,1082.629028 
	C262.398712,996.966797 262.265076,911.304321 262.399719,825.642273 
	C262.427917,807.700500 263.649323,789.757324 263.539124,771.819641 
	C263.446259,756.704773 256.992401,744.288147 244.681854,735.203979 
	C233.383774,726.866943 220.727097,725.908691 207.609177,729.094727 
	C200.125336,730.912415 192.957886,732.423157 185.103043,730.509888 
	C181.239639,729.568787 176.479980,730.552612 172.592224,731.956543 
	C168.651520,733.379639 165.434174,736.685608 161.625839,738.629761 
	C157.953262,740.504700 153.782837,743.244629 150.089371,742.892944 
	C139.056335,741.842224 130.024612,744.782288 122.257027,752.579407 
	C114.381721,760.484741 108.643677,769.727295 104.422134,779.953308 
	C101.804680,786.293701 101.080200,794.502869 96.555237,798.665771 
	C91.939713,802.912109 83.717102,803.247070 77.061790,805.254883 
	C76.228058,805.506409 75.321587,805.516785 73.309143,805.798157 
	C72.301926,791.610718 71.436409,777.779175 70.282761,763.971741 
	C69.817513,758.403381 71.800034,754.843872 76.399139,751.494263 
	C94.652283,738.200256 112.499321,724.350159 130.662201,710.929871 
	C136.998795,706.247864 141.175980,700.812744 140.180801,692.547302 
	C139.469879,686.642700 142.451935,683.420166 147.524872,680.985901 
	C176.564056,667.051270 186.558365,629.459351 171.717545,601.389709 
	C168.136566,594.616699 168.368393,589.584534 171.615158,582.928345 
	C189.374786,546.519348 206.559753,509.830383 224.179382,473.352203 
	C226.427704,468.697449 229.398544,463.991760 233.159836,460.533386 
	C255.638245,439.865662 278.113373,419.171265 301.211975,399.205872 
	C353.140869,354.320801 409.071136,314.912872 468.260529,280.236237 
	C508.366119,256.739990 549.822449,235.794556 592.816345,217.991302 
	C626.264771,204.140686 660.366272,192.164230 695.238708,182.458252 
	C730.057922,172.767044 765.380188,165.318375 801.213745,160.583023 
	C820.576721,158.024231 840.020813,155.316376 859.500610,154.574615 
	C892.379272,153.322617 925.341980,152.190521 958.174438,156.116867 
	C980.845764,158.828049 1003.584045,161.097443 1026.162231,164.442810 
	C1060.323608,169.504456 1093.741089,178.191132 1126.641113,188.447372 
	C1194.411865,209.574188 1258.318970,239.576370 1319.097046,276.050873 
	C1394.267212,321.162384 1463.159058,374.706696 1527.449219,434.217743 
	C1540.609985,446.400055 1554.073853,458.354279 1566.259033,471.471588 
	C1595.562256,503.016449 1610.802856,541.778809 1621.085571,582.816956 
	C1622.792358,589.629150 1622.286133,596.002747 1619.201660,602.979614 
	C1609.872803,624.080933 1610.755493,644.934082 1624.333374,664.383545 
	C1629.578247,671.896240 1636.578369,677.438477 1644.741577,681.484680 
	C1649.292603,683.740479 1652.271729,686.828003 1651.659424,692.298950 
	C1650.637207,701.432556 1655.575317,707.053101 1662.470703,712.093140 
	C1680.435181,725.223999 1698.050415,738.832642 1715.999268,751.985352 
	C1720.214600,755.074341 1722.210449,758.453918 1721.703979,763.671265 
	C1720.337524,777.746826 1719.184204,791.842957 1717.926025,806.161804 
	C1713.110352,804.778076 1709.049683,802.977783 1704.845703,802.532471 
	C1695.523438,801.544922 1691.342529,796.458313 1689.528931,787.531372 
	C1686.814209,774.169067 1679.223267,763.226196 1670.106079,753.308716 
	C1662.376343,744.900330 1653.055176,741.273499 1641.587036,743.207947 
	C1639.557373,743.550293 1637.008667,742.842468 1635.161377,741.800903 
	C1631.706543,739.852966 1628.607422,737.279724 1625.328857,735.012329 
	C1619.676147,731.103149 1613.508911,728.345581 1606.613037,730.384094 
	C1598.837158,732.682678 1591.656250,730.850952 1584.189575,729.052917 
	C1575.420044,726.941162 1566.453125,726.337952 1557.746460,729.682312 
	C1539.122925,736.835876 1528.194458,752.571594 1528.379639,772.632263 
	C1528.622314,798.908325 1529.567993,825.180664 1529.600220,851.455383 
	C1529.740967,966.449280 1529.800049,1081.443848 1529.511475,1196.437256 
	C1529.467896,1213.800171 1536.043945,1227.300537 1548.705566,1238.345093 
	C1560.141602,1248.320435 1573.810303,1250.960205 1587.933960,1247.106323 
	C1593.784180,1245.509888 1598.072266,1244.311401 1603.428955,1247.825806 
	C1609.494629,1251.805298 1616.786621,1253.104126 1623.276733,1249.722778 
	C1628.693604,1246.900513 1633.489746,1242.491333 1637.778687,1238.032593 
	C1640.834229,1234.856323 1642.599854,1232.784058 1648.131592,1233.059082 
	C1662.524902,1233.775024 1673.765869,1226.850098 1680.016724,1213.585571 
	C1685.069580,1202.863403 1689.240112,1191.725342 1694.108154,1180.036865 
	C1694.409424,1179.998169 1695.685425,1179.842041 1696.959473,1179.669678 
	C1714.674683,1177.273071 1730.147583,1170.061279 1742.321899,1156.946655 
	C1759.369751,1138.581909 1769.913452,1116.602783 1776.207275,1092.494507 
	C1782.587891,1068.054199 1786.024048,1043.150391 1787.673096,1017.984070 
	C1789.549316,989.350891 1787.026855,961.025513 1782.641846,932.699768 
	C1778.668701,907.034851 1772.226318,882.069946 1763.611328,857.697021 
	C1760.521118,848.954895 1759.117065,840.378540 1759.723755,831.388306 
	C1760.973022,812.869141 1762.399536,794.359314 1764.006836,775.867798 
	C1764.952026,764.994873 1766.394531,754.165405 1767.594849,743.314392 
	C1768.284668,737.077637 1765.795654,732.658325 1760.616455,728.987976 
	C1748.431274,720.352478 1736.517578,711.330933 1724.562744,702.373901 
	C1714.791504,695.052795 1705.119995,687.598877 1695.066162,679.946594 
	C1697.403442,677.798584 1699.041748,676.256104 1700.718872,674.757141 
	C1715.485962,661.560486 1722.709351,645.242065 1721.703735,625.283142 
	C1720.210693,595.650024 1698.506104,573.011108 1670.485840,571.790405 
	C1664.132935,571.513672 1659.876221,569.094727 1656.521240,563.943848 
	C1649.810791,553.641541 1642.605469,543.654053 1636.099243,533.227783 
	C1621.350830,509.593323 1603.998535,487.528046 1593.005005,461.614044 
	C1589.645996,453.695984 1585.932007,445.907471 1581.988770,438.261719 
	C1559.096313,393.875305 1532.303833,351.974762 1501.914429,312.330627 
	C1458.641846,255.880127 1409.056885,205.677887 1353.140381,161.779495 
	C1308.584595,126.800148 1260.653320,97.182503 1209.423462,72.944572 
	C1169.164917,53.897381 1127.538330,38.674381 1084.560791,26.908175 
	C1052.858276,18.228783 1020.601501,12.685597 988.181519,7.886913 
	C979.023315,6.531361 969.680359,6.456314 960.441833,5.585006 
	C958.469421,5.398987 954.636414,6.666044 956.000000,2.000000 
M2058.319824,853.011597 
	C2058.427246,967.973816 2058.534424,1082.936035 2058.668213,1197.898193 
	C2058.668457,1198.147461 2059.057861,1198.399658 2059.272461,1198.644287 
	C2059.491211,1198.894043 2059.718506,1199.136108 2059.773682,1199.196533 
	C2079.549805,1199.196533 2099.110107,1199.196533 2119.604004,1199.196533 
	C2119.604004,1142.916382 2119.604004,1087.108154 2119.604004,1030.943970 
	C2140.654053,1030.943970 2160.756348,1030.943970 2181.816406,1030.943970 
	C2181.816406,1087.332275 2181.816406,1143.127930 2181.816406,1198.985596 
	C2202.223389,1198.985596 2221.660156,1198.985596 2241.282227,1198.985596 
	C2241.282227,1073.777832 2241.282227,949.264343 2241.282227,824.204407 
	C2221.438477,824.204407 2201.987061,824.204407 2181.530273,824.204407 
	C2181.530273,874.573853 2181.530273,924.684448 2181.530273,975.031921 
	C2160.408447,975.031921 2140.293457,975.031921 2119.534424,975.031921 
	C2119.534424,924.521118 2119.534424,874.631531 2119.534424,824.403687 
	C2098.847656,824.403687 2078.819824,824.403687 2058.320068,824.403687 
	C2058.320068,833.767395 2058.320068,842.393311 2058.319824,853.011597 
M3352.462158,829.084778 
	C3342.871582,835.291016 3334.322998,842.634949 3328.073975,852.305725 
	C3316.892822,869.609009 3312.577148,889.103638 3312.450439,909.213745 
	C3312.025879,976.536621 3312.212646,1043.864014 3312.356445,1111.189331 
	C3312.389160,1126.549316 3314.707520,1141.695557 3320.486084,1156.010986 
	C3328.736328,1176.449097 3342.981445,1191.208984 3363.900635,1198.785645 
	C3388.090576,1207.547363 3412.692383,1207.665894 3437.239014,1200.503540 
	C3452.297607,1196.109619 3465.172363,1187.824829 3474.523926,1175.071533 
	C3486.469482,1158.780640 3492.338379,1140.343872 3492.327148,1120.049561 
	C3492.287598,1047.724609 3492.257324,975.399475 3492.361816,903.074585 
	C3492.380859,889.860657 3489.599609,877.349854 3484.530762,865.262085 
	C3474.206055,840.639221 3455.431885,825.841064 3429.744141,820.484985 
	C3403.785645,815.072388 3378.145020,816.666504 3352.462158,829.084778 
M2987.977783,823.662048 
	C2982.845459,823.069946 2982.117676,827.127136 2980.985840,830.503052 
	C2969.198730,865.657104 2957.484375,900.835449 2945.701660,935.990906 
	C2945.069824,937.875671 2944.008301,939.616455 2942.448975,942.889954 
	C2929.109131,902.252747 2916.315186,863.278259 2903.512207,824.276184 
	C2882.353271,824.276184 2861.568848,824.276184 2839.964355,824.276184 
	C2844.013672,835.993408 2847.714600,846.937378 2851.572754,857.825745 
	C2868.609131,905.908203 2885.752441,953.953064 2902.612793,1002.097168 
	C2903.703369,1005.211304 2903.645752,1009.352112 2902.581543,1012.493164 
	C2896.423584,1030.665894 2889.785156,1048.675537 2883.342773,1066.752197 
	C2871.330811,1100.457520 2859.311523,1134.160522 2847.360107,1167.887451 
	C2843.718750,1178.163818 2840.290527,1188.515625 2836.606445,1199.295654 
	C2855.990234,1199.295654 2874.538574,1199.295654 2893.683105,1199.295654 
	C2907.999268,1156.691406 2922.263428,1114.242920 2936.527344,1071.794434 
	C2937.115234,1071.773926 2937.703125,1071.753296 2938.291260,1071.732788 
	C2952.333008,1114.361572 2966.374512,1156.990356 2980.263916,1199.156250 
	C3001.938232,1199.156250 3022.435059,1199.156250 3043.742920,1199.156250 
	C3042.598145,1195.675659 3041.747559,1192.876953 3040.761719,1190.126709 
	C3032.043945,1165.809570 3023.244141,1141.521729 3014.580811,1117.185059 
	C3002.243164,1082.526611 2989.922363,1047.861450 2977.850830,1013.109924 
	C2976.757812,1009.963135 2976.522217,1005.815308 2977.595215,1002.724976 
	C2993.030762,958.264465 3008.755371,913.904297 3024.419922,869.523254 
	C3029.693848,854.580872 3034.992920,839.647339 3040.652100,823.659729 
	C3022.993652,823.659729 3006.394775,823.659729 2987.977783,823.662048 
M3734.300781,905.520020 
	C3734.559082,884.810547 3742.034668,874.648987 3759.929199,872.710754 
	C3773.885742,871.199036 3787.652344,877.933228 3790.110596,893.691711 
	C3791.232666,900.882935 3791.978516,908.182007 3792.200684,915.453308 
	C3792.543701,926.685730 3792.291016,937.936279 3792.291016,949.619873 
	C3811.415771,949.619873 3829.486816,949.619873 3848.314453,949.619873 
	C3848.314453,935.342529 3848.104980,921.733704 3848.378174,908.134644 
	C3848.614258,896.402344 3847.486572,884.896118 3843.961914,873.711304 
	C3836.458496,849.900146 3822.400391,832.107727 3798.062500,823.542480 
	C3776.667969,816.013000 3754.845215,816.002991 3733.190918,820.757874 
	C3716.290039,824.468933 3701.852783,833.292297 3691.360107,847.680786 
	C3679.570801,863.847351 3674.384521,882.138916 3674.346436,901.870483 
	C3674.208496,973.167358 3674.232910,1044.464844 3674.373047,1115.761841 
	C3674.388428,1123.693604 3674.779053,1131.770386 3676.290283,1139.527710 
	C3682.042969,1169.059082 3697.605957,1191.029297 3727.250000,1200.329468 
	C3746.471924,1206.360229 3766.107422,1207.146240 3786.144775,1202.698364 
	C3810.178711,1197.363159 3828.085205,1184.696777 3838.793945,1162.546509 
	C3845.072021,1149.560547 3848.314453,1135.670044 3848.312012,1121.135620 
	C3848.308838,1103.477905 3848.334717,1085.820190 3848.292969,1068.162476 
	C3848.286133,1065.242554 3847.999023,1062.323242 3847.820801,1059.021973 
	C3829.199707,1059.021973 3811.129395,1059.021973 3792.291016,1059.021973 
	C3792.291016,1076.013428 3792.519531,1092.291260 3792.187012,1108.557739 
	C3792.038330,1115.822266 3791.049316,1123.109131 3789.910400,1130.301758 
	C3788.945801,1136.392090 3785.879150,1141.594238 3780.721191,1145.200806 
	C3761.949951,1158.326416 3736.794434,1146.970093 3734.409668,1124.291626 
	C3734.097412,1121.323975 3734.301025,1118.299927 3734.300781,1115.302002 
	C3734.297119,1046.003784 3734.298340,976.705566 3734.300781,905.520020 
M3213.562500,830.328796 
	C3213.074707,832.264648 3212.395752,834.174500 3212.128174,836.140381 
	C3209.311523,856.843567 3206.558594,877.555298 3203.791504,898.265259 
	C3199.311523,931.796448 3194.754639,965.317566 3190.378662,998.862305 
	C3186.044434,1032.087769 3181.913574,1065.339722 3177.604248,1098.568481 
	C3177.377686,1100.315186 3176.318604,1101.953979 3175.647217,1103.642944 
	C3167.860107,1056.919556 3162.094482,1010.269104 3155.603271,963.719849 
	C3149.121582,917.238220 3143.674316,870.599365 3136.642090,824.414978 
	C3115.737305,824.414978 3096.243408,824.414978 3076.155518,824.414978 
	C3095.179443,949.973267 3114.082764,1074.734863 3132.932861,1199.144287 
	C3160.058105,1199.144287 3185.949707,1199.144287 3212.536133,1199.144287 
	C3231.488770,1073.984985 3250.374512,949.268677 3269.384521,823.730042 
	C3251.648193,823.730042 3235.023926,823.756165 3218.399658,823.708130 
	C3215.032959,823.698425 3213.528809,825.234863 3213.562500,830.328796 
M2417.000000,1144.329102 
	C2400.422852,1144.329102 2383.845703,1144.329102 2366.934082,1144.329102 
	C2366.934082,1106.000000 2366.934082,1068.571899 2366.934082,1030.180420 
	C2393.980469,1030.180420 2420.452881,1030.180420 2447.254639,1030.180420 
	C2447.254639,1011.711792 2447.254639,994.210083 2447.254639,975.666382 
	C2437.973633,975.666382 2429.077393,975.666443 2420.181396,975.666443 
	C2411.185547,975.666443 2402.189453,975.703125 2393.193848,975.656006 
	C2384.353516,975.609680 2375.513916,975.478210 2366.844727,975.385925 
	C2366.844727,942.210571 2366.844727,910.345947 2366.844727,877.496399 
	C2400.803711,877.496399 2434.274170,877.496399 2467.714111,877.496399 
	C2467.714111,859.030029 2467.714111,841.562378 2467.714111,824.067139 
	C2413.575195,824.067139 2360.063477,824.067139 2306.110840,824.067139 
	C2306.110840,949.221130 2306.110840,1073.974365 2306.110840,1199.050171 
	C2360.315918,1199.050171 2414.068359,1199.050171 2468.340332,1199.050171 
	C2468.340332,1189.462158 2468.351074,1180.490723 2468.337402,1171.519287 
	C2468.324219,1162.684082 2468.286133,1153.848755 2468.256592,1144.329102 
	C2450.875488,1144.329102 2434.937744,1144.329102 2417.000000,1144.329102 
M3981.147461,1030.307129 
	C4002.359375,1030.307129 4023.571045,1030.307129 4045.101074,1030.307129 
	C4045.101074,1011.560791 4045.101074,994.090027 4045.101074,975.461914 
	C4018.047363,975.461914 3991.577393,975.461914 3964.855957,975.461914 
	C3964.855957,942.462158 3964.855957,910.627991 3964.855957,877.517456 
	C3998.818359,877.517456 4032.260986,877.517456 4065.730957,877.517456 
	C4065.730957,859.041687 4065.730957,841.851135 4065.730957,824.756897 
	C4052.562256,822.775024 3912.030029,823.317871 3904.916504,825.305908 
	C3904.916504,949.770508 3904.916504,1074.251343 3904.916504,1198.633301 
	C3918.076904,1200.662842 4058.931396,1200.083374 4066.309082,1197.899902 
	C4066.309082,1189.097656 4066.509766,1180.113770 4066.251953,1171.142944 
	C4065.999023,1162.331909 4067.471436,1153.389893 4064.992188,1143.774414 
	C4031.420654,1143.774414 3998.260742,1143.774414 3964.898926,1143.774414 
	C3964.898926,1105.651978 3964.898926,1068.501099 3964.898926,1030.307373 
	C3970.038818,1030.307373 3974.622559,1030.307373 3981.147461,1030.307129 
M2522.319824,930.999878 
	C2522.319824,1020.225708 2522.319824,1109.451538 2522.319824,1199.176880 
	C2575.094727,1199.176880 2626.889648,1199.176880 2679.174316,1199.176880 
	C2679.174316,1180.890869 2679.174316,1163.092773 2679.174316,1144.333008 
	C2646.870850,1144.333008 2615.053223,1144.333008 2582.188721,1144.333008 
	C2582.188721,1036.958618 2582.188721,930.540039 2582.188721,824.398926 
	C2561.670898,824.398926 2542.227295,824.398926 2522.319824,824.398926 
	C2522.319824,859.758667 2522.319824,894.379211 2522.319824,930.999878 
M3563.205078,823.693787 
	C3560.314453,823.882690 3557.423828,824.071594 3554.678955,824.250977 
	C3552.615479,839.161255 3553.308838,1192.075073 3555.511475,1199.703491 
	C3564.928955,1199.703491 3574.550049,1199.703369 3584.171143,1199.703369 
	C3593.717773,1199.703369 3603.264404,1199.703491 3612.587646,1199.703491 
	C3614.735352,1185.134399 3614.086182,831.085144 3611.923340,823.693298 
	C3596.456543,823.693298 3580.814209,823.693298 3563.205078,823.693787 
M2784.460205,1199.665283 
	C2791.471924,1198.900635 2788.169189,1193.378784 2788.174316,1190.274902 
	C2788.376465,1070.740601 2788.349121,951.205994 2788.322021,831.671448 
	C2788.321289,829.138184 2787.966309,826.604980 2787.800049,824.384888 
	C2767.676025,824.384888 2748.245361,824.384888 2729.024902,824.384888 
	C2729.024902,949.772766 2729.024902,1074.435303 2729.024902,1199.675415 
	C2747.327881,1199.675415 2764.935303,1199.675415 2784.460205,1199.665283 
M1107.728394,797.000122 
	C1107.728271,784.667419 1107.855713,772.332703 1107.658325,760.003113 
	C1107.589844,755.724731 1107.080200,751.376160 1106.129517,747.206177 
	C1104.494629,740.034729 1098.326538,734.527588 1091.761719,733.712219 
	C1082.121582,732.514893 1075.136719,735.213806 1071.565063,742.867554 
	C1069.550293,747.185059 1068.410522,752.331055 1068.405640,757.105408 
	C1068.247437,913.764526 1068.273560,1070.423828 1068.286621,1227.083008 
	C1068.286865,1229.743896 1068.146240,1232.461426 1068.611694,1235.055542 
	C1070.218750,1244.010620 1078.557129,1251.169922 1087.494995,1251.545288 
	C1095.522461,1251.882568 1104.321899,1245.324097 1106.431885,1236.777954 
	C1107.449341,1232.656372 1107.678223,1228.254761 1107.680054,1223.979858 
	C1107.739868,1082.319946 1107.728760,940.659973 1107.728394,797.000122 
M639.897827,1245.432373 
	C646.334351,1240.593018 646.381226,1233.717407 646.377563,1226.534912 
	C646.300232,1076.291260 646.308044,926.047729 646.358765,775.804138 
	C646.360901,769.518860 647.180359,763.234619 647.203186,756.948364 
	C647.257080,742.099976 637.836914,734.734802 626.665649,735.604614 
	C615.555725,736.469543 608.416626,743.373779 608.330750,754.959961 
	C608.175171,775.946289 608.285461,796.934570 608.285522,817.922058 
	C608.286011,953.840881 608.274536,1089.759644 608.348999,1225.678467 
	C608.351074,1229.575317 608.453613,1233.810791 609.908875,1237.305542 
	C614.483765,1248.292236 624.263000,1251.161255 639.897827,1245.432373 
M531.700012,1015.000000 
	C531.700012,1073.963501 531.699646,1132.927002 531.701416,1191.890503 
	C531.701538,1194.555420 531.535950,1197.236816 531.768738,1199.882202 
	C532.403625,1207.095093 538.189636,1213.969604 544.937744,1215.776001 
	C553.543030,1218.079224 561.406433,1215.380493 566.462952,1209.265991 
	C570.767822,1204.060303 570.289734,1198.132568 570.290588,1192.186646 
	C570.310181,1058.602661 570.306091,925.018616 570.304626,791.434570 
	C570.304565,789.436035 570.383118,787.430664 570.250977,785.440063 
	C569.616821,775.894287 563.633972,769.431824 554.172852,767.987000 
	C545.066467,766.596436 535.770569,771.163208 532.985596,779.320984 
	C531.634705,783.277954 531.751709,787.845215 531.747864,792.136719 
	C531.681335,865.757751 531.699951,939.378906 531.700012,1015.000000 
M1184.321411,897.000000 
	C1184.321411,881.009888 1184.321777,865.019775 1184.321289,849.029663 
	C1184.320923,835.704590 1184.513184,822.375916 1184.266968,809.055420 
	C1183.994507,794.310364 1170.120239,785.981079 1156.768188,792.147827 
	C1147.851685,796.265930 1145.739624,803.763672 1145.656250,812.651184 
	C1145.241333,856.903442 1144.450439,901.153931 1144.319092,945.406677 
	C1144.098511,1019.693298 1144.276123,1093.981079 1144.287842,1168.268433 
	C1144.288208,1170.933350 1144.107056,1173.616089 1144.346313,1176.260010 
	C1145.243286,1186.166992 1152.860962,1193.565918 1162.593262,1194.154785 
	C1173.021973,1194.785767 1180.289429,1189.181641 1182.290771,1178.610840 
	C1183.087646,1174.401733 1183.643311,1170.075439 1183.656616,1165.800415 
	C1183.934692,1076.867065 1184.119019,987.933533 1184.321411,897.000000 
M698.829956,1176.409546 
	C712.907043,1179.319458 722.398926,1172.631348 723.936707,1158.579346 
	C724.297852,1155.279785 724.287048,1151.929443 724.287537,1148.602417 
	C724.304382,1043.615967 724.301697,938.629578 724.300781,833.643127 
	C724.300720,831.310181 724.409363,828.969421 724.260498,826.645569 
	C723.513794,814.981812 714.346436,806.140259 703.612305,806.653870 
	C692.179626,807.200928 685.720215,814.520508 685.715759,827.402527 
	C685.677979,937.388306 685.753052,1047.374268 685.587097,1157.359741 
	C685.573242,1166.525024 689.010254,1172.613159 698.829956,1176.409546 
M454.277100,943.000000 
	C454.277069,1002.588440 454.242584,1062.176880 454.340424,1121.765259 
	C454.348511,1126.699829 454.811493,1131.726562 455.835480,1136.546387 
	C457.725159,1145.440918 464.399628,1149.734009 473.885284,1150.460571 
	C484.039703,1151.238281 491.610352,1143.511963 493.267517,1136.560913 
	C493.947815,1133.707520 493.712036,1130.610107 493.712646,1127.623779 
	C493.731750,1037.075928 493.728394,946.528198 493.727936,855.980408 
	C493.727936,854.315918 493.818481,852.644470 493.700226,850.988159 
	C493.031250,841.617310 485.651001,834.317505 476.268066,833.685303 
	C465.462799,832.957275 457.768005,838.275513 455.824585,848.315552 
	C454.886383,853.162720 454.370361,858.166260 454.343414,863.102661 
	C454.201691,889.067749 454.277222,915.034119 454.277100,943.000000 
M773.681763,841.986023 
	C767.168152,845.912537 763.964294,851.733582 763.682312,859.281677 
	C763.248779,870.890320 762.501282,882.493530 762.347778,894.105164 
	C761.578064,952.330322 760.963562,1010.557556 760.274841,1068.783813 
	C760.223755,1073.107544 759.928223,1077.428955 759.898743,1081.752441 
	C759.796570,1096.738525 759.469238,1111.731567 759.804932,1126.708984 
	C760.025757,1136.557983 767.942505,1143.685059 778.087097,1144.273438 
	C787.848022,1144.839600 796.508789,1138.776123 797.994873,1129.885254 
	C798.920837,1124.345337 799.586121,1118.696167 799.651672,1113.087769 
	C800.417847,1047.534546 801.044312,981.979858 801.715881,916.425659 
	C801.903381,898.117432 802.249268,879.809570 802.278015,861.501221 
	C802.301758,846.379272 795.099060,839.678406 779.964539,840.346619 
	C778.347473,840.418030 776.753174,841.005249 773.681763,841.986023 
M1244.567139,841.862061 
	C1231.537354,842.871155 1224.296265,848.560425 1223.754639,858.766541 
	C1223.068726,871.688904 1222.529419,884.627563 1222.325317,897.565491 
	C1221.549438,946.778015 1220.814087,995.991760 1220.307617,1045.207520 
	C1220.040527,1071.175903 1220.115356,1097.150879 1220.363281,1123.119751 
	C1220.466553,1133.944580 1227.978271,1141.606689 1238.092163,1142.281006 
	C1249.230347,1143.023560 1256.159180,1137.619019 1258.357910,1126.315430 
	C1258.987427,1123.079102 1259.619629,1119.780029 1259.661865,1116.502197 
	C1260.401611,1059.296143 1261.084229,1002.089417 1261.702759,944.881958 
	C1261.990723,918.256714 1262.239014,891.629883 1262.263794,865.003479 
	C1262.276733,851.199829 1258.812256,846.627869 1244.567139,841.862061 
M991.698059,869.778748 
	C991.696228,949.426453 991.692078,1029.074097 991.701843,1108.721802 
	C991.702209,1111.717651 991.634888,1114.734619 991.946228,1117.705444 
	C993.069214,1128.421387 1001.851318,1135.956421 1012.342529,1135.367188 
	C1022.988525,1134.769409 1029.894165,1127.550659 1030.287354,1116.568481 
	C1030.358887,1114.571411 1030.304443,1112.569824 1030.304443,1110.570312 
	C1030.305664,1031.255859 1030.307129,951.941406 1030.303711,872.626953 
	C1030.303589,869.961426 1030.481567,867.270386 1030.185181,864.635254 
	C1029.325806,856.995361 1022.672363,850.589417 1014.986328,849.760071 
	C1000.798889,848.229248 994.747437,852.969177 991.698059,869.778748 
M1337.730591,943.000000 
	C1337.730469,927.362976 1337.813843,911.725098 1337.667603,896.089478 
	C1337.634033,892.489685 1337.242920,888.775879 1336.269043,885.325562 
	C1333.854858,876.772339 1327.532593,872.067505 1318.754517,871.694702 
	C1310.251709,871.333557 1302.812256,875.783569 1300.071167,883.813721 
	C1298.717163,887.780457 1298.349854,892.245422 1298.342896,896.486328 
	C1298.239868,960.032593 1298.271240,1023.579041 1298.273560,1087.125488 
	C1298.273682,1089.454102 1298.125366,1091.799683 1298.347900,1094.108398 
	C1299.346313,1104.472046 1306.389160,1111.630249 1316.107544,1112.303589 
	C1326.947021,1113.054565 1333.802734,1108.288086 1336.517700,1097.523438 
	C1337.473877,1093.732666 1337.675659,1089.671875 1337.681885,1085.733521 
	C1337.757080,1038.822388 1337.730347,991.911194 1337.730591,943.000000 
M838.290405,1035.000000 
	C838.759155,1053.584595 839.108337,1072.173218 839.741028,1090.752319 
	C840.128357,1102.128052 847.028137,1109.288696 857.418823,1109.699463 
	C868.588440,1110.140747 877.177673,1102.632812 878.241028,1091.352417 
	C878.489929,1088.712524 878.337646,1086.030762 878.305359,1083.369141 
	C877.647888,1029.187378 876.968201,975.005737 876.328369,920.823792 
	C876.218384,911.507141 876.712646,902.161865 876.149292,892.877075 
	C875.177429,876.859985 858.805969,869.049744 845.560791,878.039917 
	C839.137451,882.399719 837.553711,888.794312 837.610901,896.258301 
	C837.960510,941.837952 838.088684,987.419250 838.290405,1035.000000 
M407.243103,881.432739 
	C391.909241,875.756592 381.005707,881.712463 378.128418,897.464478 
	C377.655060,900.055969 377.694946,902.762390 377.693909,905.415833 
	C377.671387,963.665283 377.638031,1021.914795 377.756683,1080.164062 
	C377.765320,1084.403809 378.243530,1088.882812 379.662659,1092.834229 
	C383.788727,1104.322754 395.558075,1108.539673 406.446655,1103.206787 
	C415.585602,1098.730713 417.713715,1090.855225 417.711060,1081.713135 
	C417.701752,1049.759155 417.708038,1017.805176 417.707703,985.851196 
	C417.707428,957.891479 417.707336,929.931702 417.704681,901.971985 
	C417.703918,893.961426 415.564850,886.924194 407.243103,881.432739 
M954.314636,1046.984497 
	C954.314575,1005.001831 954.316956,963.019104 954.309204,921.036438 
	C954.308655,918.038757 954.513611,915.005920 954.142151,912.049866 
	C952.854919,901.806824 946.131104,894.949829 937.029419,894.300842 
	C925.551697,893.482361 918.711975,898.076416 915.589844,909.125427 
	C914.705200,912.256165 914.367371,915.638245 914.362427,918.906006 
	C914.288025,967.885620 914.310852,1016.865479 914.313843,1065.845215 
	C914.313904,1067.510864 914.081726,1069.230103 914.406250,1070.833496 
	C916.319763,1080.286011 919.801636,1087.897217 929.398132,1089.757446 
	C943.405396,1092.472412 953.609497,1084.577271 954.255859,1069.963989 
	C954.564697,1062.980469 954.312683,1055.972046 954.314636,1046.984497 
M301.675323,997.003418 
	C301.675659,1003.662476 301.603241,1010.322510 301.692780,1016.980347 
	C301.840393,1027.957764 301.805695,1038.948853 302.381195,1049.906128 
	C302.963104,1060.984619 311.231506,1069.336670 321.118561,1069.629395 
	C331.470490,1069.936035 339.758789,1062.626831 341.520782,1051.498413 
	C341.830383,1049.543335 341.734680,1047.510742 341.699463,1045.516235 
	C341.048981,1008.664795 340.392151,971.813538 339.677124,934.963379 
	C339.639191,933.009277 339.233398,931.023010 338.727478,929.124023 
	C336.455322,920.595215 330.399567,915.934570 321.439484,915.685181 
	C310.683624,915.385742 304.357239,919.297729 301.721100,928.454041 
	C300.730011,931.896545 300.295441,935.632263 300.354706,939.221924 
	C300.661835,957.818726 301.210815,976.411438 301.675323,997.003418 
M1407.684814,927.191711 
	C1406.268677,926.335693 1404.950439,925.196960 1403.421265,924.667114 
	C1387.468140,919.140381 1375.704102,927.457458 1375.687500,944.274780 
	C1375.655518,976.525024 1375.732056,1008.775452 1375.626099,1041.025391 
	C1375.609131,1046.186646 1376.269287,1050.917114 1379.819580,1054.914062 
	C1385.335083,1061.123169 1393.252563,1063.043823 1401.550781,1060.134277 
	C1409.807373,1057.239258 1413.620483,1051.897583 1413.663208,1041.705688 
	C1413.802856,1008.458618 1413.903320,975.208313 1413.494507,941.965637 
	C1413.438354,937.396545 1410.417969,932.863831 1407.684814,927.191711 
M1461.751831,952.065369 
	C1455.334961,955.597656 1452.202881,960.944580 1452.253662,968.350220 
	C1452.362915,984.320740 1452.081177,1000.296082 1452.362183,1016.262390 
	C1452.559448,1027.464844 1460.566528,1034.565674 1471.854126,1034.295044 
	C1482.711670,1034.034668 1490.127319,1026.998047 1490.262939,1016.230042 
	C1490.464478,1000.238953 1490.469727,984.241455 1490.261108,968.250549 
	C1490.123779,957.720093 1482.352051,950.039490 1471.941040,949.911804 
	C1469.021973,949.876038 1466.090820,950.820312 1461.751831,952.065369 
z"/>
<path fill="#FEFEFE" opacity="1.000000" stroke="none" 
	d="
M955.062683,2.000000 
	C954.636414,6.666044 958.469421,5.398987 960.441833,5.585006 
	C969.680359,6.456314 979.023315,6.531361 988.181519,7.886913 
	C1020.601501,12.685597 1052.858276,18.228783 1084.560791,26.908175 
	C1127.538330,38.674381 1169.164917,53.897381 1209.423462,72.944572 
	C1260.653320,97.182503 1308.584595,126.800148 1353.140381,161.779495 
	C1409.056885,205.677887 1458.641846,255.880127 1501.914429,312.330627 
	C1532.303833,351.974762 1559.096313,393.875305 1581.988770,438.261719 
	C1585.932007,445.907471 1589.645996,453.695984 1593.005005,461.614044 
	C1603.998535,487.528046 1621.350830,509.593323 1636.099243,533.227783 
	C1642.605469,543.654053 1649.810791,553.641541 1656.521240,563.943848 
	C1659.876221,569.094727 1664.132935,571.513672 1670.485840,571.790405 
	C1698.506104,573.011108 1720.210693,595.650024 1721.703735,625.283142 
	C1722.709351,645.242065 1715.485962,661.560486 1700.718872,674.757141 
	C1699.041748,676.256104 1697.403442,677.798584 1695.066162,679.946594 
	C1705.119995,687.598877 1714.791504,695.052795 1724.562744,702.373901 
	C1736.517578,711.330933 1748.431274,720.352478 1760.616455,728.987976 
	C1765.795654,732.658325 1768.284668,737.077637 1767.594849,743.314392 
	C1766.394531,754.165405 1764.952026,764.994873 1764.006836,775.867798 
	C1762.399536,794.359314 1760.973022,812.869141 1759.723755,831.388306 
	C1759.117065,840.378540 1760.521118,848.954895 1763.611328,857.697021 
	C1772.226318,882.069946 1778.668701,907.034851 1782.641846,932.699768 
	C1787.026855,961.025513 1789.549316,989.350891 1787.673096,1017.984070 
	C1786.024048,1043.150391 1782.587891,1068.054199 1776.207275,1092.494507 
	C1769.913452,1116.602783 1759.369751,1138.581909 1742.321899,1156.946655 
	C1730.147583,1170.061279 1714.674683,1177.273071 1696.959473,1179.669678 
	C1695.685425,1179.842041 1694.409424,1179.998169 1694.108154,1180.036865 
	C1689.240112,1191.725342 1685.069580,1202.863403 1680.016724,1213.585571 
	C1673.765869,1226.850098 1662.524902,1233.775024 1648.131592,1233.059082 
	C1642.599854,1232.784058 1640.834229,1234.856323 1637.778687,1238.032593 
	C1633.489746,1242.491333 1628.693604,1246.900513 1623.276733,1249.722778 
	C1616.786621,1253.104126 1609.494629,1251.805298 1603.428955,1247.825806 
	C1598.072266,1244.311401 1593.784180,1245.509888 1587.933960,1247.106323 
	C1573.810303,1250.960205 1560.141602,1248.320435 1548.705566,1238.345093 
	C1536.043945,1227.300537 1529.467896,1213.800171 1529.511475,1196.437256 
	C1529.800049,1081.443848 1529.740967,966.449280 1529.600220,851.455383 
	C1529.567993,825.180664 1528.622314,798.908325 1528.379639,772.632263 
	C1528.194458,752.571594 1539.122925,736.835876 1557.746460,729.682312 
	C1566.453125,726.337952 1575.420044,726.941162 1584.189575,729.052917 
	C1591.656250,730.850952 1598.837158,732.682678 1606.613037,730.384094 
	C1613.508911,728.345581 1619.676147,731.103149 1625.328857,735.012329 
	C1628.607422,737.279724 1631.706543,739.852966 1635.161377,741.800903 
	C1637.008667,742.842468 1639.557373,743.550293 1641.587036,743.207947 
	C1653.055176,741.273499 1662.376343,744.900330 1670.106079,753.308716 
	C1679.223267,763.226196 1686.814209,774.169067 1689.528931,787.531372 
	C1691.342529,796.458313 1695.523438,801.544922 1704.845703,802.532471 
	C1709.049683,802.977783 1713.110352,804.778076 1717.926025,806.161804 
	C1719.184204,791.842957 1720.337524,777.746826 1721.703979,763.671265 
	C1722.210449,758.453918 1720.214600,755.074341 1715.999268,751.985352 
	C1698.050415,738.832642 1680.435181,725.223999 1662.470703,712.093140 
	C1655.575317,707.053101 1650.637207,701.432556 1651.659424,692.298950 
	C1652.271729,686.828003 1649.292603,683.740479 1644.741577,681.484680 
	C1636.578369,677.438477 1629.578247,671.896240 1624.333374,664.383545 
	C1610.755493,644.934082 1609.872803,624.080933 1619.201660,602.979614 
	C1622.286133,596.002747 1622.792358,589.629150 1621.085571,582.816956 
	C1610.802856,541.778809 1595.562256,503.016449 1566.259033,471.471588 
	C1554.073853,458.354279 1540.609985,446.400055 1527.449219,434.217743 
	C1463.159058,374.706696 1394.267212,321.162384 1319.097046,276.050873 
	C1258.318970,239.576370 1194.411865,209.574188 1126.641113,188.447372 
	C1093.741089,178.191132 1060.323608,169.504456 1026.162231,164.442810 
	C1003.584045,161.097443 980.845764,158.828049 958.174438,156.116867 
	C925.341980,152.190521 892.379272,153.322617 859.500610,154.574615 
	C840.020813,155.316376 820.576721,158.024231 801.213745,160.583023 
	C765.380188,165.318375 730.057922,172.767044 695.238708,182.458252 
	C660.366272,192.164230 626.264771,204.140686 592.816345,217.991302 
	C549.822449,235.794556 508.366119,256.739990 468.260529,280.236237 
	C409.071136,314.912872 353.140869,354.320801 301.211975,399.205872 
	C278.113373,419.171265 255.638245,439.865662 233.159836,460.533386 
	C229.398544,463.991760 226.427704,468.697449 224.179382,473.352203 
	C206.559753,509.830383 189.374786,546.519348 171.615158,582.928345 
	C168.368393,589.584534 168.136566,594.616699 171.717545,601.389709 
	C186.558365,629.459351 176.564056,667.051270 147.524872,680.985901 
	C142.451935,683.420166 139.469879,686.642700 140.180801,692.547302 
	C141.175980,700.812744 136.998795,706.247864 130.662201,710.929871 
	C112.499321,724.350159 94.652283,738.200256 76.399139,751.494263 
	C71.800034,754.843872 69.817513,758.403381 70.282761,763.971741 
	C71.436409,777.779175 72.301926,791.610718 73.309143,805.798157 
	C75.321587,805.516785 76.228058,805.506409 77.061790,805.254883 
	C83.717102,803.247070 91.939713,802.912109 96.555237,798.665771 
	C101.080200,794.502869 101.804680,786.293701 104.422134,779.953308 
	C108.643677,769.727295 114.381721,760.484741 122.257027,752.579407 
	C130.024612,744.782288 139.056335,741.842224 150.089371,742.892944 
	C153.782837,743.244629 157.953262,740.504700 161.625839,738.629761 
	C165.434174,736.685608 168.651520,733.379639 172.592224,731.956543 
	C176.479980,730.552612 181.239639,729.568787 185.103043,730.509888 
	C192.957886,732.423157 200.125336,730.912415 207.609177,729.094727 
	C220.727097,725.908691 233.383774,726.866943 244.681854,735.203979 
	C256.992401,744.288147 263.446259,756.704773 263.539124,771.819641 
	C263.649323,789.757324 262.427917,807.700500 262.399719,825.642273 
	C262.265076,911.304321 262.398712,996.966797 262.308655,1082.629028 
	C262.275024,1114.609619 261.879150,1146.589844 261.677063,1178.570435 
	C261.610199,1189.151367 262.838348,1199.604980 260.572906,1210.307129 
	C255.536728,1234.098755 227.412781,1258.958740 196.205307,1244.409912 
	C171.908371,1255.441650 169.547089,1254.853638 148.844513,1232.425171 
	C132.534866,1234.999023 119.637062,1229.329468 112.066109,1214.290405 
	C106.738976,1203.708618 102.691147,1192.482910 97.743698,1180.767090 
	C91.148712,1178.974487 83.047546,1177.375366 75.386612,1174.572876 
	C55.548988,1167.315674 42.968071,1151.819946 32.533257,1134.509277 
	C20.565491,1114.655518 14.499881,1092.588013 10.415710,1069.970093 
	C8.653952,1060.213501 7.655480,1050.321167 6.088169,1040.526001 
	C5.690039,1038.037720 4.442501,1035.685547 2.792631,1033.635376 
	C2.000000,1009.958191 2.000000,985.916443 2.783318,961.312500 
	C4.366704,958.663391 5.664966,956.629272 5.892194,954.481750 
	C9.354847,921.757141 16.763439,889.960144 27.612700,858.904968 
	C29.777365,852.708923 32.155937,846.089539 32.062141,839.700134 
	C31.823885,823.469971 30.474060,807.240112 29.128601,791.046753 
	C27.813992,775.224609 25.966856,759.446533 24.327238,743.651855 
	C23.690739,737.520325 25.671452,733.111816 30.962530,729.265076 
	C50.571712,715.009094 69.827957,700.267456 89.206581,685.694702 
	C91.715813,683.807739 94.165329,681.841309 97.084496,679.567444 
	C76.277672,664.048584 66.801941,644.599548 70.425949,619.968262 
	C74.285713,593.734619 92.638298,573.976135 119.679245,571.873596 
	C127.491104,571.266113 132.685822,568.267395 136.732803,561.948242 
	C144.247040,550.215027 152.211853,538.765625 159.557343,526.930115 
	C171.939682,506.978821 186.090164,488.251495 194.892365,465.962097 
	C209.677704,428.521942 230.231171,394.012054 252.677811,360.603699 
	C281.649231,317.484253 314.530975,277.596924 350.935669,240.625839 
	C388.800720,202.171707 430.158447,167.851486 474.745422,137.401184 
	C504.678497,116.958656 535.798340,98.563019 568.208069,82.374115 
	C607.416199,62.789345 648.013611,46.744705 689.971619,33.935791 
	C730.986816,21.414660 772.755859,12.896994 815.254944,7.703946 
	C823.139221,6.740550 831.094299,6.368454 839.005249,5.604264 
	C840.967590,5.414703 844.126648,5.779557 842.000000,2.000000 
	C879.375122,2.000000 916.750244,2.000000 955.062683,2.000000 
M1677.638672,657.051758 
	C1693.104614,651.283997 1701.420532,630.967896 1692.016602,613.697998 
	C1686.705078,603.943665 1677.836426,598.361023 1666.925903,598.553040 
	C1655.092529,598.761353 1646.597412,605.301147 1641.729858,616.414062 
	C1636.182861,629.078125 1638.545776,640.537231 1647.541138,650.271667 
	C1655.204590,658.564758 1664.810669,662.453796 1677.638672,657.051758 
M143.800888,650.748535 
	C145.527649,648.321289 147.516312,646.037292 148.935623,643.441956 
	C154.907181,632.522034 153.012131,617.591980 144.626312,608.072571 
	C136.888489,599.288757 124.790688,596.112915 114.929161,600.276550 
	C102.457741,605.542053 94.704475,617.597107 95.724762,631.092957 
	C96.587425,642.504028 102.483345,650.853821 112.493393,656.465332 
	C123.878983,662.848022 133.516663,658.892761 143.800888,650.748535 
z"/>
<path fill="#000000" opacity="1.000000" stroke="none" 
	d="
M841.062683,2.000000 
	C844.126648,5.779557 840.967590,5.414703 839.005249,5.604264 
	C831.094299,6.368454 823.139221,6.740550 815.254944,7.703946 
	C772.755859,12.896994 730.986816,21.414660 689.971619,33.935791 
	C648.013611,46.744705 607.416199,62.789345 568.208069,82.374115 
	C535.798340,98.563019 504.678497,116.958656 474.745422,137.401184 
	C430.158447,167.851486 388.800720,202.171707 350.935669,240.625839 
	C314.530975,277.596924 281.649231,317.484253 252.677811,360.603699 
	C230.231171,394.012054 209.677704,428.521942 194.892365,465.962097 
	C186.090164,488.251495 171.939682,506.978821 159.557343,526.930115 
	C152.211853,538.765625 144.247040,550.215027 136.732803,561.948242 
	C132.685822,568.267395 127.491104,571.266113 119.679245,571.873596 
	C92.638298,573.976135 74.285713,593.734619 70.425949,619.968262 
	C66.801941,644.599548 76.277672,664.048584 97.084496,679.567444 
	C94.165329,681.841309 91.715813,683.807739 89.206581,685.694702 
	C69.827957,700.267456 50.571712,715.009094 30.962530,729.265076 
	C25.671452,733.111816 23.690739,737.520325 24.327238,743.651855 
	C25.966856,759.446533 27.813992,775.224609 29.128601,791.046753 
	C30.474060,807.240112 31.823885,823.469971 32.062141,839.700134 
	C32.155937,846.089539 29.777365,852.708923 27.612700,858.904968 
	C16.763439,889.960144 9.354847,921.757141 5.892194,954.481750 
	C5.664966,956.629272 4.366704,958.663391 2.783318,960.375122 
	C2.000000,640.822083 2.000000,321.644165 2.000000,2.000000 
	C281.374939,2.000000 560.750183,2.000000 841.062683,2.000000 
z"/>
<path fill="#FCFCFC" opacity="1.000000" stroke="none" 
	d="
M2058.319824,852.015381 
	C2058.320068,842.393311 2058.320068,833.767395 2058.320068,824.403687 
	C2078.819824,824.403687 2098.847656,824.403687 2119.534424,824.403687 
	C2119.534424,874.631531 2119.534424,924.521118 2119.534424,975.031921 
	C2140.293457,975.031921 2160.408447,975.031921 2181.530273,975.031921 
	C2181.530273,924.684448 2181.530273,874.573853 2181.530273,824.204407 
	C2201.987061,824.204407 2221.438477,824.204407 2241.282227,824.204407 
	C2241.282227,949.264343 2241.282227,1073.777832 2241.282227,1198.985596 
	C2221.660156,1198.985596 2202.223389,1198.985596 2181.816406,1198.985596 
	C2181.816406,1143.127930 2181.816406,1087.332275 2181.816406,1030.943970 
	C2160.756348,1030.943970 2140.654053,1030.943970 2119.604004,1030.943970 
	C2119.604004,1087.108154 2119.604004,1142.916382 2119.604004,1199.196533 
	C2099.110107,1199.196533 2079.549805,1199.196533 2059.773682,1199.196533 
	C2059.718506,1199.136108 2059.491211,1198.894043 2059.272461,1198.644287 
	C2059.057861,1198.399658 2058.668457,1198.147461 2058.668213,1197.898193 
	C2058.534424,1082.936035 2058.427246,967.973816 2058.319824,852.015381 
z"/>
<path fill="#E05A19" opacity="1.000000" stroke="none" 
	d="
M3353.104492,828.701965 
	C3378.145020,816.666504 3403.785645,815.072388 3429.744141,820.484985 
	C3455.431885,825.841064 3474.206055,840.639221 3484.530762,865.262085 
	C3489.599609,877.349854 3492.380859,889.860657 3492.361816,903.074585 
	C3492.257324,975.399475 3492.287598,1047.724609 3492.327148,1120.049561 
	C3492.338379,1140.343872 3486.469482,1158.780640 3474.523926,1175.071533 
	C3465.172363,1187.824829 3452.297607,1196.109619 3437.239014,1200.503540 
	C3412.692383,1207.665894 3388.090576,1207.547363 3363.900635,1198.785645 
	C3342.981445,1191.208984 3328.736328,1176.449097 3320.486084,1156.010986 
	C3314.707520,1141.695557 3312.389160,1126.549316 3312.356445,1111.189331 
	C3312.212646,1043.864014 3312.025879,976.536621 3312.450439,909.213745 
	C3312.577148,889.103638 3316.892822,869.609009 3328.073975,852.305725 
	C3334.322998,842.634949 3342.871582,835.291016 3353.104492,828.701965 
M3373.684570,1013.000000 
	C3373.688232,1047.297241 3373.686523,1081.594604 3373.706299,1115.891846 
	C3373.708008,1118.885376 3373.636719,1121.902832 3373.967529,1124.868164 
	C3375.539551,1138.952148 3384.480713,1148.546021 3398.010010,1150.110352 
	C3411.550781,1151.676270 3425.632568,1147.026855 3429.889160,1132.399658 
	C3431.346436,1127.392212 3432.177734,1122.013916 3432.188721,1116.802734 
	C3432.336670,1046.210571 3432.289551,975.617920 3432.288086,905.025391 
	C3432.288086,903.027832 3432.475342,901.000061 3432.204834,899.037476 
	C3429.749268,881.241211 3419.903076,872.640930 3402.906738,872.575867 
	C3383.323242,872.500916 3375.184570,884.963623 3373.788574,899.121826 
	C3373.528076,901.761780 3373.694824,904.445557 3373.694336,907.109131 
	C3373.687988,941.739441 3373.686768,976.369690 3373.684570,1013.000000 
z"/>
<path fill="#FCFCFC" opacity="1.000000" stroke="none" 
	d="
M2988.886963,823.660889 
	C3006.394775,823.659729 3022.993652,823.659729 3040.652100,823.659729 
	C3034.992920,839.647339 3029.693848,854.580872 3024.419922,869.523254 
	C3008.755371,913.904297 2993.030762,958.264465 2977.595215,1002.724976 
	C2976.522217,1005.815308 2976.757812,1009.963135 2977.850830,1013.109924 
	C2989.922363,1047.861450 3002.243164,1082.526611 3014.580811,1117.185059 
	C3023.244141,1141.521729 3032.043945,1165.809570 3040.761719,1190.126709 
	C3041.747559,1192.876953 3042.598145,1195.675659 3043.742920,1199.156250 
	C3022.435059,1199.156250 3001.938232,1199.156250 2980.263916,1199.156250 
	C2966.374512,1156.990356 2952.333008,1114.361572 2938.291260,1071.732788 
	C2937.703125,1071.753296 2937.115234,1071.773926 2936.527344,1071.794434 
	C2922.263428,1114.242920 2907.999268,1156.691406 2893.683105,1199.295654 
	C2874.538574,1199.295654 2855.990234,1199.295654 2836.606445,1199.295654 
	C2840.290527,1188.515625 2843.718750,1178.163818 2847.360107,1167.887451 
	C2859.311523,1134.160522 2871.330811,1100.457520 2883.342773,1066.752197 
	C2889.785156,1048.675537 2896.423584,1030.665894 2902.581543,1012.493164 
	C2903.645752,1009.352112 2903.703369,1005.211304 2902.612793,1002.097168 
	C2885.752441,953.953064 2868.609131,905.908203 2851.572754,857.825745 
	C2847.714600,846.937378 2844.013672,835.993408 2839.964355,824.276184 
	C2861.568848,824.276184 2882.353271,824.276184 2903.512207,824.276184 
	C2916.315186,863.278259 2929.109131,902.252747 2942.448975,942.889954 
	C2944.008301,939.616455 2945.069824,937.875671 2945.701660,935.990906 
	C2957.484375,900.835449 2969.198730,865.657104 2980.985840,830.503052 
	C2982.117676,827.127136 2982.845459,823.069946 2988.886963,823.660889 
z"/>
<path fill="#E05A19" opacity="1.000000" stroke="none" 
	d="
M3734.299805,906.463684 
	C3734.298340,976.705566 3734.297119,1046.003784 3734.300781,1115.302002 
	C3734.301025,1118.299927 3734.097412,1121.323975 3734.409668,1124.291626 
	C3736.794434,1146.970093 3761.949951,1158.326416 3780.721191,1145.200806 
	C3785.879150,1141.594238 3788.945801,1136.392090 3789.910400,1130.301758 
	C3791.049316,1123.109131 3792.038330,1115.822266 3792.187012,1108.557739 
	C3792.519531,1092.291260 3792.291016,1076.013428 3792.291016,1059.021973 
	C3811.129395,1059.021973 3829.199707,1059.021973 3847.820801,1059.021973 
	C3847.999023,1062.323242 3848.286133,1065.242554 3848.292969,1068.162476 
	C3848.334717,1085.820190 3848.308838,1103.477905 3848.312012,1121.135620 
	C3848.314453,1135.670044 3845.072021,1149.560547 3838.793945,1162.546509 
	C3828.085205,1184.696777 3810.178711,1197.363159 3786.144775,1202.698364 
	C3766.107422,1207.146240 3746.471924,1206.360229 3727.250000,1200.329468 
	C3697.605957,1191.029297 3682.042969,1169.059082 3676.290283,1139.527710 
	C3674.779053,1131.770386 3674.388428,1123.693604 3674.373047,1115.761841 
	C3674.232910,1044.464844 3674.208496,973.167358 3674.346436,901.870483 
	C3674.384521,882.138916 3679.570801,863.847351 3691.360107,847.680786 
	C3701.852783,833.292297 3716.290039,824.468933 3733.190918,820.757874 
	C3754.845215,816.002991 3776.667969,816.013000 3798.062500,823.542480 
	C3822.400391,832.107727 3836.458496,849.900146 3843.961914,873.711304 
	C3847.486572,884.896118 3848.614258,896.402344 3848.378174,908.134644 
	C3848.104980,921.733704 3848.314453,935.342529 3848.314453,949.619873 
	C3829.486816,949.619873 3811.415771,949.619873 3792.291016,949.619873 
	C3792.291016,937.936279 3792.543701,926.685730 3792.200684,915.453308 
	C3791.978516,908.182007 3791.232666,900.882935 3790.110596,893.691711 
	C3787.652344,877.933228 3773.885742,871.199036 3759.929199,872.710754 
	C3742.034668,874.648987 3734.559082,884.810547 3734.299805,906.463684 
z"/>
<path fill="#E05A19" opacity="1.000000" stroke="none" 
	d="
M3213.625000,829.430725 
	C3213.528809,825.234863 3215.032959,823.698425 3218.399658,823.708130 
	C3235.023926,823.756165 3251.648193,823.730042 3269.384521,823.730042 
	C3250.374512,949.268677 3231.488770,1073.984985 3212.536133,1199.144287 
	C3185.949707,1199.144287 3160.058105,1199.144287 3132.932861,1199.144287 
	C3114.082764,1074.734863 3095.179443,949.973267 3076.155518,824.414978 
	C3096.243408,824.414978 3115.737305,824.414978 3136.642090,824.414978 
	C3143.674316,870.599365 3149.121582,917.238220 3155.603271,963.719849 
	C3162.094482,1010.269104 3167.860107,1056.919556 3175.647217,1103.642944 
	C3176.318604,1101.953979 3177.377686,1100.315186 3177.604248,1098.568481 
	C3181.913574,1065.339722 3186.044434,1032.087769 3190.378662,998.862305 
	C3194.754639,965.317566 3199.311523,931.796448 3203.791504,898.265259 
	C3206.558594,877.555298 3209.311523,856.843567 3212.128174,836.140381 
	C3212.395752,834.174500 3213.074707,832.264648 3213.625000,829.430725 
z"/>
<path fill="#FEFEFE" opacity="1.000000" stroke="none" 
	d="
M2418.000000,1144.329102 
	C2434.937744,1144.329102 2450.875488,1144.329102 2468.256592,1144.329102 
	C2468.286133,1153.848755 2468.324219,1162.684082 2468.337402,1171.519287 
	C2468.351074,1180.490723 2468.340332,1189.462158 2468.340332,1199.050171 
	C2414.068359,1199.050171 2360.315918,1199.050171 2306.110840,1199.050171 
	C2306.110840,1073.974365 2306.110840,949.221130 2306.110840,824.067139 
	C2360.063477,824.067139 2413.575195,824.067139 2467.714111,824.067139 
	C2467.714111,841.562378 2467.714111,859.030029 2467.714111,877.496399 
	C2434.274170,877.496399 2400.803711,877.496399 2366.844727,877.496399 
	C2366.844727,910.345947 2366.844727,942.210571 2366.844727,975.385925 
	C2375.513916,975.478210 2384.353516,975.609680 2393.193848,975.656006 
	C2402.189453,975.703125 2411.185547,975.666443 2420.181396,975.666443 
	C2429.077393,975.666443 2437.973633,975.666382 2447.254639,975.666382 
	C2447.254639,994.210083 2447.254639,1011.711792 2447.254639,1030.180420 
	C2420.452881,1030.180420 2393.980469,1030.180420 2366.934082,1030.180420 
	C2366.934082,1068.571899 2366.934082,1106.000000 2366.934082,1144.329102 
	C2383.845703,1144.329102 2400.422852,1144.329102 2418.000000,1144.329102 
z"/>
<path fill="#E05A19" opacity="1.000000" stroke="none" 
	d="
M3980.176758,1030.307251 
	C3974.622559,1030.307373 3970.038818,1030.307373 3964.898926,1030.307373 
	C3964.898926,1068.501099 3964.898926,1105.651978 3964.898926,1143.774414 
	C3998.260742,1143.774414 4031.420654,1143.774414 4064.992188,1143.774414 
	C4067.471436,1153.389893 4065.999023,1162.331909 4066.251953,1171.142944 
	C4066.509766,1180.113770 4066.309082,1189.097656 4066.309082,1197.899902 
	C4058.931396,1200.083374 3918.076904,1200.662842 3904.916504,1198.633301 
	C3904.916504,1074.251343 3904.916504,949.770508 3904.916504,825.305908 
	C3912.030029,823.317871 4052.562256,822.775024 4065.730957,824.756897 
	C4065.730957,841.851135 4065.730957,859.041687 4065.730957,877.517456 
	C4032.260986,877.517456 3998.818359,877.517456 3964.855957,877.517456 
	C3964.855957,910.627991 3964.855957,942.462158 3964.855957,975.461914 
	C3991.577393,975.461914 4018.047363,975.461914 4045.101074,975.461914 
	C4045.101074,994.090027 4045.101074,1011.560791 4045.101074,1030.307129 
	C4023.571045,1030.307129 4002.359375,1030.307129 3980.176758,1030.307251 
z"/>
<path fill="#FCFCFC" opacity="1.000000" stroke="none" 
	d="
M2522.319824,929.999817 
	C2522.319824,894.379211 2522.319824,859.758667 2522.319824,824.398926 
	C2542.227295,824.398926 2561.670898,824.398926 2582.188721,824.398926 
	C2582.188721,930.540039 2582.188721,1036.958618 2582.188721,1144.333008 
	C2615.053223,1144.333008 2646.870850,1144.333008 2679.174316,1144.333008 
	C2679.174316,1163.092773 2679.174316,1180.890869 2679.174316,1199.176880 
	C2626.889648,1199.176880 2575.094727,1199.176880 2522.319824,1199.176880 
	C2522.319824,1109.451538 2522.319824,1020.225708 2522.319824,929.999817 
z"/>
<path fill="#E05A19" opacity="1.000000" stroke="none" 
	d="
M3564.188477,823.693542 
	C3580.814209,823.693298 3596.456543,823.693298 3611.923340,823.693298 
	C3614.086182,831.085144 3614.735352,1185.134399 3612.587646,1199.703491 
	C3603.264404,1199.703491 3593.717773,1199.703369 3584.171143,1199.703369 
	C3574.550049,1199.703369 3564.928955,1199.703491 3555.511475,1199.703491 
	C3553.308838,1192.075073 3552.615479,839.161255 3554.678955,824.250977 
	C3557.423828,824.071594 3560.314453,823.882690 3564.188477,823.693542 
z"/>
<path fill="#FDFDFD" opacity="1.000000" stroke="none" 
	d="
M2783.501465,1199.670410 
	C2764.935303,1199.675415 2747.327881,1199.675415 2729.024902,1199.675415 
	C2729.024902,1074.435303 2729.024902,949.772766 2729.024902,824.384888 
	C2748.245361,824.384888 2767.676025,824.384888 2787.800049,824.384888 
	C2787.966309,826.604980 2788.321289,829.138184 2788.322021,831.671448 
	C2788.349121,951.205994 2788.376465,1070.740601 2788.174316,1190.274902 
	C2788.169189,1193.378784 2791.471924,1198.900635 2783.501465,1199.670410 
z"/>
<path fill="#DC5918" opacity="1.000000" stroke="none" 
	d="
M1107.728271,798.000061 
	C1107.728760,940.659973 1107.739868,1082.319946 1107.680054,1223.979858 
	C1107.678223,1228.254761 1107.449341,1232.656372 1106.431885,1236.777954 
	C1104.321899,1245.324097 1095.522461,1251.882568 1087.494995,1251.545288 
	C1078.557129,1251.169922 1070.218750,1244.010620 1068.611694,1235.055542 
	C1068.146240,1232.461426 1068.286865,1229.743896 1068.286621,1227.083008 
	C1068.273560,1070.423828 1068.247437,913.764526 1068.405640,757.105408 
	C1068.410522,752.331055 1069.550293,747.185059 1071.565063,742.867554 
	C1075.136719,735.213806 1082.121582,732.514893 1091.761719,733.712219 
	C1098.326538,734.527588 1104.494629,740.034729 1106.129517,747.206177 
	C1107.080200,751.376160 1107.589844,755.724731 1107.658325,760.003113 
	C1107.855713,772.332703 1107.728271,784.667419 1107.728271,798.000061 
z"/>
<path fill="#DF5A19" opacity="1.000000" stroke="none" 
	d="
M639.214478,1245.898682 
	C624.263000,1251.161255 614.483765,1248.292236 609.908875,1237.305542 
	C608.453613,1233.810791 608.351074,1229.575317 608.348999,1225.678467 
	C608.274536,1089.759644 608.286011,953.840881 608.285522,817.922058 
	C608.285461,796.934570 608.175171,775.946289 608.330750,754.959961 
	C608.416626,743.373779 615.555725,736.469543 626.665649,735.604614 
	C637.836914,734.734802 647.257080,742.099976 647.203186,756.948364 
	C647.180359,763.234619 646.360901,769.518860 646.358765,775.804138 
	C646.308044,926.047729 646.300232,1076.291260 646.377563,1226.534912 
	C646.381226,1233.717407 646.334351,1240.593018 639.214478,1245.898682 
z"/>
<path fill="#E25B19" opacity="1.000000" stroke="none" 
	d="
M531.699951,1014.000000 
	C531.699951,939.378906 531.681335,865.757751 531.747864,792.136719 
	C531.751709,787.845215 531.634705,783.277954 532.985596,779.320984 
	C535.770569,771.163208 545.066467,766.596436 554.172852,767.987000 
	C563.633972,769.431824 569.616821,775.894287 570.250977,785.440063 
	C570.383118,787.430664 570.304565,789.436035 570.304626,791.434570 
	C570.306091,925.018616 570.310181,1058.602661 570.290588,1192.186646 
	C570.289734,1198.132568 570.767822,1204.060303 566.462952,1209.265991 
	C561.406433,1215.380493 553.543030,1218.079224 544.937744,1215.776001 
	C538.189636,1213.969604 532.403625,1207.095093 531.768738,1199.882202 
	C531.535950,1197.236816 531.701538,1194.555420 531.701416,1191.890503 
	C531.699646,1132.927002 531.700012,1073.963501 531.699951,1014.000000 
z"/>
<path fill="#DE5A19" opacity="1.000000" stroke="none" 
	d="
M1184.321533,898.000000 
	C1184.119019,987.933533 1183.934692,1076.867065 1183.656616,1165.800415 
	C1183.643311,1170.075439 1183.087646,1174.401733 1182.290771,1178.610840 
	C1180.289429,1189.181641 1173.021973,1194.785767 1162.593262,1194.154785 
	C1152.860962,1193.565918 1145.243286,1186.166992 1144.346313,1176.260010 
	C1144.107056,1173.616089 1144.288208,1170.933350 1144.287842,1168.268433 
	C1144.276123,1093.981079 1144.098511,1019.693298 1144.319092,945.406677 
	C1144.450439,901.153931 1145.241333,856.903442 1145.656250,812.651184 
	C1145.739624,803.763672 1147.851685,796.265930 1156.768188,792.147827 
	C1170.120239,785.981079 1183.994507,794.310364 1184.266968,809.055420 
	C1184.513184,822.375916 1184.320923,835.704590 1184.321289,849.029663 
	C1184.321777,865.019775 1184.321411,881.009888 1184.321533,898.000000 
z"/>
<path fill="#E15B19" opacity="1.000000" stroke="none" 
	d="
M698.070190,1176.269165 
	C689.010254,1172.613159 685.573242,1166.525024 685.587097,1157.359741 
	C685.753052,1047.374268 685.677979,937.388306 685.715759,827.402527 
	C685.720215,814.520508 692.179626,807.200928 703.612305,806.653870 
	C714.346436,806.140259 723.513794,814.981812 724.260498,826.645569 
	C724.409363,828.969421 724.300720,831.310181 724.300781,833.643127 
	C724.301697,938.629578 724.304382,1043.615967 724.287537,1148.602417 
	C724.287048,1151.929443 724.297852,1155.279785 723.936707,1158.579346 
	C722.398926,1172.631348 712.907043,1179.319458 698.070190,1176.269165 
z"/>
<path fill="#DC5918" opacity="1.000000" stroke="none" 
	d="
M454.277222,942.000000 
	C454.277222,915.034119 454.201691,889.067749 454.343414,863.102661 
	C454.370361,858.166260 454.886383,853.162720 455.824585,848.315552 
	C457.768005,838.275513 465.462799,832.957275 476.268066,833.685303 
	C485.651001,834.317505 493.031250,841.617310 493.700226,850.988159 
	C493.818481,852.644470 493.727936,854.315918 493.727936,855.980408 
	C493.728394,946.528198 493.731750,1037.075928 493.712646,1127.623779 
	C493.712036,1130.610107 493.947815,1133.707520 493.267517,1136.560913 
	C491.610352,1143.511963 484.039703,1151.238281 473.885284,1150.460571 
	C464.399628,1149.734009 457.725159,1145.440918 455.835480,1136.546387 
	C454.811493,1131.726562 454.348511,1126.699829 454.340424,1121.765259 
	C454.242584,1062.176880 454.277069,1002.588440 454.277222,942.000000 
z"/>
<path fill="#DF5A19" opacity="1.000000" stroke="none" 
	d="
M774.415039,841.669556 
	C776.753174,841.005249 778.347473,840.418030 779.964539,840.346619 
	C795.099060,839.678406 802.301758,846.379272 802.278015,861.501221 
	C802.249268,879.809570 801.903381,898.117432 801.715881,916.425659 
	C801.044312,981.979858 800.417847,1047.534546 799.651672,1113.087769 
	C799.586121,1118.696167 798.920837,1124.345337 797.994873,1129.885254 
	C796.508789,1138.776123 787.848022,1144.839600 778.087097,1144.273438 
	C767.942505,1143.685059 760.025757,1136.557983 759.804932,1126.708984 
	C759.469238,1111.731567 759.796570,1096.738525 759.898743,1081.752441 
	C759.928223,1077.428955 760.223755,1073.107544 760.274841,1068.783813 
	C760.963562,1010.557556 761.578064,952.330322 762.347778,894.105164 
	C762.501282,882.493530 763.248779,870.890320 763.682312,859.281677 
	C763.964294,851.733582 767.168152,845.912537 774.415039,841.669556 
z"/>
<path fill="#DE5919" opacity="1.000000" stroke="none" 
	d="
M1245.363892,841.989380 
	C1258.812256,846.627869 1262.276733,851.199829 1262.263794,865.003479 
	C1262.239014,891.629883 1261.990723,918.256714 1261.702759,944.881958 
	C1261.084229,1002.089417 1260.401611,1059.296143 1259.661865,1116.502197 
	C1259.619629,1119.780029 1258.987427,1123.079102 1258.357910,1126.315430 
	C1256.159180,1137.619019 1249.230347,1143.023560 1238.092163,1142.281006 
	C1227.978271,1141.606689 1220.466553,1133.944580 1220.363281,1123.119751 
	C1220.115356,1097.150879 1220.040527,1071.175903 1220.307617,1045.207520 
	C1220.814087,995.991760 1221.549438,946.778015 1222.325317,897.565491 
	C1222.529419,884.627563 1223.068726,871.688904 1223.754639,858.766541 
	C1224.296265,848.560425 1231.537354,842.871155 1245.363892,841.989380 
z"/>
<path fill="#E15B19" opacity="1.000000" stroke="none" 
	d="
M991.713745,868.877686 
	C994.747437,852.969177 1000.798889,848.229248 1014.986328,849.760071 
	C1022.672363,850.589417 1029.325806,856.995361 1030.185181,864.635254 
	C1030.481567,867.270386 1030.303589,869.961426 1030.303711,872.626953 
	C1030.307129,951.941406 1030.305664,1031.255859 1030.304443,1110.570312 
	C1030.304443,1112.569824 1030.358887,1114.571411 1030.287354,1116.568481 
	C1029.894165,1127.550659 1022.988525,1134.769409 1012.342529,1135.367188 
	C1001.851318,1135.956421 993.069214,1128.421387 991.946228,1117.705444 
	C991.634888,1114.734619 991.702209,1111.717651 991.701843,1108.721802 
	C991.692078,1029.074097 991.696228,949.426453 991.713745,868.877686 
z"/>
<path fill="#DC5918" opacity="1.000000" stroke="none" 
	d="
M1337.730469,944.000000 
	C1337.730347,991.911194 1337.757080,1038.822388 1337.681885,1085.733521 
	C1337.675659,1089.671875 1337.473877,1093.732666 1336.517700,1097.523438 
	C1333.802734,1108.288086 1326.947021,1113.054565 1316.107544,1112.303589 
	C1306.389160,1111.630249 1299.346313,1104.472046 1298.347900,1094.108398 
	C1298.125366,1091.799683 1298.273682,1089.454102 1298.273560,1087.125488 
	C1298.271240,1023.579041 1298.239868,960.032593 1298.342896,896.486328 
	C1298.349854,892.245422 1298.717163,887.780457 1300.071167,883.813721 
	C1302.812256,875.783569 1310.251709,871.333557 1318.754517,871.694702 
	C1327.532593,872.067505 1333.854858,876.772339 1336.269043,885.325562 
	C1337.242920,888.775879 1337.634033,892.489685 1337.667603,896.089478 
	C1337.813843,911.725098 1337.730469,927.362976 1337.730469,944.000000 
z"/>
<path fill="#E05A19" opacity="1.000000" stroke="none" 
	d="
M838.290527,1034.000000 
	C838.088684,987.419250 837.960510,941.837952 837.610901,896.258301 
	C837.553711,888.794312 839.137451,882.399719 845.560791,878.039917 
	C858.805969,869.049744 875.177429,876.859985 876.149292,892.877075 
	C876.712646,902.161865 876.218384,911.507141 876.328369,920.823792 
	C876.968201,975.005737 877.647888,1029.187378 878.305359,1083.369141 
	C878.337646,1086.030762 878.489929,1088.712524 878.241028,1091.352417 
	C877.177673,1102.632812 868.588440,1110.140747 857.418823,1109.699463 
	C847.028137,1109.288696 840.128357,1102.128052 839.741028,1090.752319 
	C839.108337,1072.173218 838.759155,1053.584595 838.290527,1034.000000 
z"/>
<path fill="#DF5A19" opacity="1.000000" stroke="none" 
	d="
M407.930420,881.759399 
	C415.564850,886.924194 417.703918,893.961426 417.704681,901.971985 
	C417.707336,929.931702 417.707428,957.891479 417.707703,985.851196 
	C417.708038,1017.805176 417.701752,1049.759155 417.711060,1081.713135 
	C417.713715,1090.855225 415.585602,1098.730713 406.446655,1103.206787 
	C395.558075,1108.539673 383.788727,1104.322754 379.662659,1092.834229 
	C378.243530,1088.882812 377.765320,1084.403809 377.756683,1080.164062 
	C377.638031,1021.914795 377.671387,963.665283 377.693909,905.415833 
	C377.694946,902.762390 377.655060,900.055969 378.128418,897.464478 
	C381.005707,881.712463 391.909241,875.756592 407.930420,881.759399 
z"/>
<path fill="#DE5919" opacity="1.000000" stroke="none" 
	d="
M954.314697,1047.979736 
	C954.312683,1055.972046 954.564697,1062.980469 954.255859,1069.963989 
	C953.609497,1084.577271 943.405396,1092.472412 929.398132,1089.757446 
	C919.801636,1087.897217 916.319763,1080.286011 914.406250,1070.833496 
	C914.081726,1069.230103 914.313904,1067.510864 914.313843,1065.845215 
	C914.310852,1016.865479 914.288025,967.885620 914.362427,918.906006 
	C914.367371,915.638245 914.705200,912.256165 915.589844,909.125427 
	C918.711975,898.076416 925.551697,893.482361 937.029419,894.300842 
	C946.131104,894.949829 952.854919,901.806824 954.142151,912.049866 
	C954.513611,915.005920 954.308655,918.038757 954.309204,921.036438 
	C954.316956,963.019104 954.314575,1005.001831 954.314697,1047.979736 
z"/>
<path fill="#DE5918" opacity="1.000000" stroke="none" 
	d="
M301.675415,996.004517 
	C301.210815,976.411438 300.661835,957.818726 300.354706,939.221924 
	C300.295441,935.632263 300.730011,931.896545 301.721100,928.454041 
	C304.357239,919.297729 310.683624,915.385742 321.439484,915.685181 
	C330.399567,915.934570 336.455322,920.595215 338.727478,929.124023 
	C339.233398,931.023010 339.639191,933.009277 339.677124,934.963379 
	C340.392151,971.813538 341.048981,1008.664795 341.699463,1045.516235 
	C341.734680,1047.510742 341.830383,1049.543335 341.520782,1051.498413 
	C339.758789,1062.626831 331.470490,1069.936035 321.118561,1069.629395 
	C311.231506,1069.336670 302.963104,1060.984619 302.381195,1049.906128 
	C301.805695,1038.948853 301.840393,1027.957764 301.692780,1016.980347 
	C301.603241,1010.322510 301.675659,1003.662476 301.675415,996.004517 
z"/>
<path fill="#DE5919" opacity="1.000000" stroke="none" 
	d="
M1408.227417,927.752930 
	C1410.417969,932.863831 1413.438354,937.396545 1413.494507,941.965637 
	C1413.903320,975.208313 1413.802856,1008.458618 1413.663208,1041.705688 
	C1413.620483,1051.897583 1409.807373,1057.239258 1401.550781,1060.134277 
	C1393.252563,1063.043823 1385.335083,1061.123169 1379.819580,1054.914062 
	C1376.269287,1050.917114 1375.609131,1046.186646 1375.626099,1041.025391 
	C1375.732056,1008.775452 1375.655518,976.525024 1375.687500,944.274780 
	C1375.704102,927.457458 1387.468140,919.140381 1403.421265,924.667114 
	C1404.950439,925.196960 1406.268677,926.335693 1408.227417,927.752930 
z"/>
<path fill="#DF5A19" opacity="1.000000" stroke="none" 
	d="
M1462.458496,951.690186 
	C1466.090820,950.820312 1469.021973,949.876038 1471.941040,949.911804 
	C1482.352051,950.039490 1490.123779,957.720093 1490.261108,968.250549 
	C1490.469727,984.241455 1490.464478,1000.238953 1490.262939,1016.230042 
	C1490.127319,1026.998047 1482.711670,1034.034668 1471.854126,1034.295044 
	C1460.566528,1034.565674 1452.559448,1027.464844 1452.362183,1016.262390 
	C1452.081177,1000.296082 1452.362915,984.320740 1452.253662,968.350220 
	C1452.202881,960.944580 1455.334961,955.597656 1462.458496,951.690186 
z"/>
<path fill="#050505" opacity="1.000000" stroke="none" 
	d="
M1676.942871,657.387939 
	C1664.810669,662.453796 1655.204590,658.564758 1647.541138,650.271667 
	C1638.545776,640.537231 1636.182861,629.078125 1641.729858,616.414062 
	C1646.597412,605.301147 1655.092529,598.761353 1666.925903,598.553040 
	C1677.836426,598.361023 1686.705078,603.943665 1692.016602,613.697998 
	C1701.420532,630.967896 1693.104614,651.283997 1676.942871,657.387939 
z"/>
<path fill="#040404" opacity="1.000000" stroke="none" 
	d="
M143.269897,651.268372 
	C133.516663,658.892761 123.878983,662.848022 112.493393,656.465332 
	C102.483345,650.853821 96.587425,642.504028 95.724762,631.092957 
	C94.704475,617.597107 102.457741,605.542053 114.929161,600.276550 
	C124.790688,596.112915 136.888489,599.288757 144.626312,608.072571 
	C153.012131,617.591980 154.907181,632.522034 148.935623,643.441956 
	C147.516312,646.037292 145.527649,648.321289 143.269897,651.268372 
z"/>
<path fill="#010000" opacity="1.000000" stroke="none" 
	d="
M3373.684570,1012.000000 
	C3373.686768,976.369690 3373.687988,941.739441 3373.694336,907.109131 
	C3373.694824,904.445557 3373.528076,901.761780 3373.788574,899.121826 
	C3375.184570,884.963623 3383.323242,872.500916 3402.906738,872.575867 
	C3419.903076,872.640930 3429.749268,881.241211 3432.204834,899.037476 
	C3432.475342,901.000061 3432.288086,903.027832 3432.288086,905.025391 
	C3432.289551,975.617920 3432.336670,1046.210571 3432.188721,1116.802734 
	C3432.177734,1122.013916 3431.346436,1127.392212 3429.889160,1132.399658 
	C3425.632568,1147.026855 3411.550781,1151.676270 3398.010010,1150.110352 
	C3384.480713,1148.546021 3375.539551,1138.952148 3373.967529,1124.868164 
	C3373.636719,1121.902832 3373.708008,1118.885376 3373.706299,1115.891846 
	C3373.686523,1081.594604 3373.688232,1047.297241 3373.684570,1012.000000 
z"/>
</svg>